<?xml version="1.0" encoding="utf-8"?>
<!-- Generator: Adobe Illustrator 21.0.0, SVG Export Plug-In . SVG Version: 6.00 Build 0)  -->
<svg version="1.1" id="Layer_3" xmlns="http://www.w3.org/2000/svg" xmlns:xlink="http://www.w3.org/1999/xlink" x="0px" y="0px"
	 viewBox="0 0 106 42" style="enable-background:new 0 0 106 42;" xml:space="preserve">
<style type="text/css">
	.st0{fill:#FFFFFF;}
</style>
<g>
	<path class="st0" d="M10.5,23c-0.1,0.1-0.1,0.2-0.2,0.2c-0.1,0-0.2,0.1-0.3,0.1s-0.3-0.1-0.4-0.2C9.5,23,9.3,22.9,9,22.8
		c-0.2-0.1-0.5-0.2-0.8-0.3S7.5,22.3,7,22.3c-0.6,0-1.2,0.1-1.6,0.3s-0.9,0.5-1.2,1c-0.3,0.4-0.6,0.9-0.7,1.5s-0.2,1.3-0.2,2
		c0,0.8,0.1,1.5,0.3,2.1c0.2,0.6,0.4,1.1,0.7,1.5c0.3,0.4,0.7,0.7,1.2,0.9s1,0.3,1.5,0.3c0.5,0,1-0.1,1.3-0.2
		c0.4-0.1,0.6-0.3,0.9-0.4c0.2-0.2,0.4-0.3,0.6-0.4c0.2-0.1,0.3-0.2,0.5-0.2c0.2,0,0.3,0.1,0.4,0.2l0.6,0.8
		c-0.6,0.7-1.2,1.2-2.1,1.5s-1.7,0.5-2.6,0.5c-0.8,0-1.5-0.1-2.2-0.4c-0.7-0.3-1.3-0.7-1.8-1.3c-0.5-0.6-0.9-1.2-1.2-2.1
		c-0.3-0.8-0.4-1.7-0.4-2.8c0-0.9,0.1-1.8,0.4-2.6c0.3-0.8,0.6-1.5,1.2-2.1c0.5-0.6,1.1-1,1.9-1.4s1.6-0.5,2.6-0.5
		c0.9,0,1.7,0.1,2.4,0.4c0.7,0.3,1.3,0.7,1.8,1.2L10.5,23z"/>
	<path class="st0" d="M18.7,20.5c0.9,0,1.8,0.2,2.5,0.5c0.7,0.3,1.4,0.7,1.9,1.3s0.9,1.3,1.2,2.1c0.3,0.8,0.4,1.7,0.4,2.7
		c0,1-0.1,1.9-0.4,2.7c-0.3,0.8-0.7,1.5-1.2,2.1s-1.2,1-1.9,1.3c-0.7,0.3-1.6,0.5-2.5,0.5c-0.9,0-1.8-0.2-2.5-0.5
		c-0.7-0.3-1.4-0.7-1.9-1.3s-0.9-1.3-1.2-2.1c-0.3-0.8-0.4-1.7-0.4-2.7c0-1,0.1-1.9,0.4-2.7c0.3-0.8,0.7-1.5,1.2-2.1s1.2-1,1.9-1.3
		C16.9,20.7,17.8,20.5,18.7,20.5z M18.7,31.9c1.3,0,2.2-0.4,2.8-1.3c0.6-0.8,0.9-2,0.9-3.5c0-1.5-0.3-2.7-0.9-3.5
		c-0.6-0.8-1.6-1.3-2.8-1.3c-0.6,0-1.2,0.1-1.7,0.3c-0.5,0.2-0.9,0.5-1.2,0.9c-0.3,0.4-0.5,0.9-0.7,1.5s-0.2,1.3-0.2,2
		c0,0.8,0.1,1.4,0.2,2c0.2,0.6,0.4,1.1,0.7,1.5c0.3,0.4,0.7,0.7,1.2,0.9S18.1,31.9,18.7,31.9z"/>
	<path class="st0" d="M36.4,33.4c-0.3,0-0.5-0.2-0.6-0.5l-0.2-1.5c-0.5,0.7-1.2,1.2-1.9,1.6c-0.7,0.4-1.5,0.6-2.4,0.6
		c-0.7,0-1.4-0.1-2-0.4c-0.6-0.3-1.1-0.7-1.5-1.2c-0.4-0.5-0.7-1.2-1-2c-0.2-0.8-0.3-1.7-0.3-2.8c0-0.9,0.1-1.8,0.4-2.6
		c0.3-0.8,0.6-1.5,1.1-2.1c0.5-0.6,1-1.1,1.7-1.4s1.4-0.5,2.3-0.5c0.8,0,1.4,0.1,2,0.4c0.6,0.3,1,0.6,1.5,1.1v-7h2.2v18.5H36.4z
		 M32.1,31.8c0.7,0,1.4-0.2,1.9-0.5c0.5-0.3,1.1-0.8,1.5-1.4v-6.1c-0.4-0.6-0.9-0.9-1.3-1.2c-0.5-0.2-1-0.3-1.6-0.3
		c-1.2,0-2.1,0.4-2.7,1.3s-1,2-1,3.6c0,0.8,0.1,1.5,0.2,2.1c0.1,0.6,0.4,1.1,0.6,1.5s0.6,0.7,1,0.8S31.6,31.8,32.1,31.8z"/>
	<path class="st0" d="M46.5,20.5c0.8,0,1.5,0.1,2.1,0.4c0.6,0.3,1.2,0.6,1.7,1.1c0.5,0.5,0.8,1.1,1.1,1.8c0.3,0.7,0.4,1.5,0.4,2.4
		c0,0.4,0,0.6-0.1,0.7s-0.2,0.2-0.4,0.2h-8.5c0,0.8,0.1,1.5,0.3,2.1s0.5,1.1,0.8,1.5c0.4,0.4,0.8,0.7,1.3,0.9s1,0.3,1.6,0.3
		c0.6,0,1-0.1,1.4-0.2c0.4-0.1,0.8-0.3,1-0.4c0.3-0.2,0.5-0.3,0.7-0.4c0.2-0.1,0.4-0.2,0.5-0.2c0.2,0,0.3,0.1,0.4,0.2l0.6,0.8
		c-0.3,0.3-0.6,0.6-1,0.9c-0.4,0.2-0.8,0.4-1.2,0.6s-0.9,0.3-1.4,0.4s-0.9,0.1-1.4,0.1c-0.9,0-1.7-0.1-2.4-0.4s-1.4-0.7-1.9-1.3
		c-0.5-0.6-1-1.3-1.3-2.1c-0.3-0.8-0.5-1.8-0.5-2.9c0-0.9,0.1-1.7,0.4-2.5c0.3-0.8,0.7-1.4,1.2-2c0.5-0.6,1.1-1,1.9-1.3
		C44.8,20.7,45.6,20.5,46.5,20.5z M46.6,22.2c-1.1,0-1.9,0.3-2.5,0.9s-1,1.5-1.2,2.6h6.9c0-0.5-0.1-1-0.2-1.4s-0.4-0.8-0.6-1.1
		s-0.6-0.6-1-0.7C47.6,22.2,47.1,22.2,46.6,22.2z"/>
	<path class="st0" d="M66.1,15.5v2h-8.6v6.3h7.4v2h-7.4v7.7H55v-18H66.1z"/>
	<path class="st0" d="M71.3,14.9v18.5h-2.2V14.9H71.3z"/>
	<path class="st0" d="M84.6,33.4h-1c-0.2,0-0.4,0-0.5-0.1c-0.1-0.1-0.2-0.2-0.3-0.4l-0.3-1.2c-0.3,0.3-0.7,0.6-1,0.8
		c-0.3,0.2-0.7,0.4-1,0.6s-0.7,0.3-1.1,0.4c-0.4,0.1-0.8,0.1-1.3,0.1c-0.5,0-1-0.1-1.4-0.2c-0.4-0.1-0.8-0.3-1.1-0.6
		c-0.3-0.3-0.6-0.6-0.8-1.1c-0.2-0.4-0.3-0.9-0.3-1.5c0-0.5,0.1-1,0.4-1.5c0.3-0.5,0.7-0.9,1.3-1.2c0.6-0.4,1.4-0.7,2.4-0.9
		s2.2-0.3,3.6-0.3v-1c0-1-0.2-1.7-0.6-2.3c-0.4-0.5-1-0.8-1.9-0.8c-0.5,0-1,0.1-1.4,0.2s-0.7,0.3-1,0.5c-0.3,0.2-0.5,0.3-0.7,0.5
		c-0.2,0.1-0.4,0.2-0.6,0.2c-0.2,0-0.3,0-0.4-0.1c-0.1-0.1-0.2-0.2-0.3-0.3l-0.4-0.7c0.7-0.7,1.5-1.2,2.3-1.5
		c0.8-0.3,1.7-0.5,2.7-0.5c0.7,0,1.3,0.1,1.9,0.4c0.6,0.2,1,0.6,1.4,1c0.4,0.4,0.7,0.9,0.9,1.5s0.3,1.2,0.3,2V33.4z M78.8,32.1
		c0.4,0,0.8,0,1.1-0.1c0.3-0.1,0.6-0.2,0.9-0.3c0.3-0.1,0.6-0.3,0.8-0.5c0.3-0.2,0.5-0.4,0.8-0.7v-2.6c-1,0-1.9,0.1-2.6,0.2
		c-0.7,0.1-1.3,0.3-1.8,0.5s-0.8,0.5-1,0.7s-0.3,0.6-0.3,1c0,0.3,0.1,0.6,0.2,0.9c0.1,0.2,0.3,0.4,0.4,0.6c0.2,0.2,0.4,0.3,0.7,0.3
		C78.2,32,78.5,32.1,78.8,32.1z"/>
	<path class="st0" d="M86.1,20.7h1.8c0.2,0,0.3,0,0.5,0.1c0.1,0.1,0.2,0.2,0.2,0.3l2.4,8.2c0.1,0.3,0.1,0.6,0.2,0.9s0.1,0.6,0.2,0.8
		c0.1-0.3,0.1-0.6,0.2-0.8c0.1-0.3,0.2-0.6,0.3-0.9l2.7-8.2c0-0.1,0.1-0.2,0.2-0.3s0.2-0.1,0.4-0.1h1c0.2,0,0.3,0,0.4,0.1
		s0.2,0.2,0.2,0.3l2.6,8.2c0.1,0.3,0.2,0.6,0.2,0.9c0.1,0.3,0.1,0.6,0.2,0.8c0-0.3,0.1-0.6,0.2-0.9c0.1-0.3,0.1-0.6,0.2-0.8l2.5-8.2
		c0-0.1,0.1-0.2,0.2-0.3s0.3-0.1,0.4-0.1h1.7l-4.1,12.7h-1.8c-0.2,0-0.4-0.1-0.5-0.4l-2.8-8.6c-0.1-0.2-0.1-0.4-0.2-0.6
		s-0.1-0.4-0.1-0.6c0,0.2-0.1,0.4-0.1,0.6c0,0.2-0.1,0.4-0.2,0.6L92.4,33c-0.1,0.3-0.3,0.4-0.5,0.4h-1.7L86.1,20.7z"/>
</g>
</svg>
